<svg xmlns="http://www.w3.org/2000/svg" aria-hidden="true" style="position:absolute;width:0;height:0;overflow:hidden"><defs>
<symbol id="icon-logo" viewBox="0 0 74 32">
<path d="M13.202 2.416c-0.141 0-0.29 0-0.429 0.017-1.622 0.135-3.112 0.824-4.173 2.079-1.155 1.366-1.434 2.805-1.421 4.543l-3.090-0.005c-0.138-0-0.281-0.004-0.427-0.008-0.403-0.011-0.822-0.023-1.199 0.046-0.228 0.042-0.426 0.153-0.587 0.319-0.28 0.292-0.287 0.661-0.269 1.038 0.029 0.596 0.080 1.192 0.131 1.788 0.028 0.324 0.056 0.648 0.080 0.972l0.513 6.626 0.249 3.2c0.012 0.158 0.022 0.317 0.032 0.478 0.035 0.573 0.071 1.154 0.222 1.702 0.261 0.932 0.779 1.771 1.494 2.423 0.625 0.567 1.38 0.972 2.199 1.178 0.693 0.167 1.497 0.148 2.253 0.13 0.225-0.005 0.446-0.010 0.658-0.011l7.792 0c0.198 0 0.403 0.005 0.61 0.010 0.671 0.016 1.37 0.033 1.997-0.114 0.882-0.205 1.775-0.69 2.419-1.328 0.599-0.594 1.078-1.388 1.287-2.208 0.16-0.627 0.2-1.315 0.239-1.983 0.013-0.215 0.025-0.428 0.041-0.637l0.341-4.389 0.425-5.388c0.021-0.266 0.047-0.535 0.074-0.805 0.058-0.584 0.116-1.173 0.115-1.75-0.001-0.355-0.076-0.686-0.33-0.95-0.175-0.182-0.461-0.271-0.704-0.31-0.363-0.059-0.761-0.049-1.147-0.038-0.142 0.004-0.283 0.007-0.419 0.008-0.972-0.002-1.944 0.002-2.915 0.010l-0.042 0.001c0.023-1.862-0.392-3.46-1.73-4.822-1.119-1.159-2.658-1.817-4.268-1.823l-0.020 0zM19.090 13.037l0.052 0.003c0.001 0.004 0.003 0.007 0.004 0.010 0.001 0.002 0.001 0.003 0.002 0.005 0.002 0.006 0.004 0.010 0.006 0.014l0.002 0.005c0.010 0.022 0.011 0.026 0.011 0.061-0.017 2.283-0.628 5.223-2.248 6.895-1.501 1.549-3.831 2.308-5.956 2.35 0.99-1.862 2.58-3.627 4.221-4.939 0.254-0.203 0.519-0.386 0.785-0.569 0.171-0.118 0.342-0.236 0.51-0.359 0.163-0.12 0.383-0.282 0.406-0.501 0.021-0.201-0.086-0.357-0.212-0.501-0.176-0.102-0.306-0.145-0.507-0.086-0.286 0.084-0.574 0.296-0.834 0.487-0.069 0.051-0.136 0.1-0.2 0.145-2.104 1.49-3.852 3.426-5.119 5.671-0.043-1.826 0.373-3.356 1.493-4.825 1.681-2.205 4.898-3.5 7.583-3.866zM2.76 10.194l20.872-0c-0.074 0.703-0.122 1.412-0.17 2.121-0.027 0.395-0.053 0.789-0.084 1.182l-0.562 7.043-0.21 2.595c-0.009 0.113-0.018 0.226-0.026 0.339-0.034 0.448-0.068 0.9-0.154 1.338-0.089 0.45-0.261 0.841-0.494 1.233-0.090 0.137-0.188 0.268-0.292 0.394-0.605 0.723-1.598 1.262-2.542 1.333-0.514 0.039-1.042 0.029-1.566 0.019-0.227-0.004-0.452-0.008-0.676-0.009l-7.776 0c-0.166 0-0.335 0.004-0.506 0.007-0.523 0.011-1.058 0.022-1.56-0.065-0.659-0.115-1.274-0.405-1.782-0.84-0.608-0.513-1.045-1.2-1.25-1.968-0.141-0.509-0.176-1.052-0.21-1.585-0.009-0.134-0.017-0.267-0.028-0.399l-0.205-2.641-0.777-10.099zM19.554 11.813l-0.016 0.002c-3.168 0.367-6.775 1.67-8.823 4.236-1.316 1.649-2.035 3.795-1.798 5.908 0.052 0.464 0.157 0.907 0.309 1.349-0.017 0.044-0.038 0.096-0.062 0.156-0.26 0.654-0.864 2.173-0.654 2.622 0.061 0.13 0.185 0.217 0.319 0.26 0.055 0.017 0.111 0.027 0.169 0.034 0.178-0.029 0.342-0.066 0.448-0.225 0.115-0.171 0.232-0.581 0.333-0.932 0.048-0.167 0.092-0.321 0.13-0.429 0.13-0.37 0.278-0.733 0.426-1.097l0.002-0.004c0.017-0.043 0.035-0.085 0.052-0.128 2.613 0.008 5.403-0.81 7.293-2.675 2.114-2.086 2.646-5.45 2.65-8.296 0-0.224-0.015-0.491-0.179-0.662-0.101-0.106-0.253-0.137-0.394-0.134-0.068 0.002-0.136 0.009-0.204 0.016zM12.948 3.557c0.101-0.006 0.203-0.012 0.304-0.011 1.241 0.009 2.484 0.564 3.356 1.438 1.187 1.191 1.43 2.455 1.433 4.071l-9.663 0.004c-0.039-1.389 0.185-2.658 1.096-3.755 0.876-1.054 2.125-1.626 3.475-1.747z"></path>
<path d="M19.143 13.040l-0.052-0.003c-2.685 0.366-5.902 1.661-7.583 3.866-1.12 1.469-1.536 2.999-1.493 4.825 1.267-2.245 3.015-4.181 5.119-5.671 0.064-0.045 0.131-0.094 0.2-0.145 0.26-0.191 0.548-0.403 0.834-0.487 0.201-0.059 0.331-0.016 0.507 0.086 0.126 0.144 0.233 0.3 0.212 0.501-0.023 0.218-0.243 0.381-0.406 0.501-0.168 0.123-0.339 0.241-0.51 0.359-0.266 0.183-0.531 0.366-0.785 0.569-1.641 1.311-3.231 3.077-4.221 4.939 2.125-0.042 4.455-0.802 5.956-2.35 1.62-1.672 2.232-4.612 2.248-6.895 0-0.035-0.001-0.039-0.011-0.061-0.002-0.005-0.005-0.012-0.008-0.020-0.002-0.004-0.004-0.009-0.006-0.015zM19.538 11.815l0.015-0.002c0.068-0.007 0.136-0.014 0.204-0.016 0.141-0.003 0.293 0.029 0.394 0.134 0.164 0.172 0.18 0.438 0.179 0.662-0.004 2.846-0.537 6.21-2.65 8.296-1.89 1.865-4.68 2.683-7.293 2.675-0.017 0.043-0.035 0.085-0.052 0.128l-0.002 0.004c-0.148 0.363-0.295 0.727-0.426 1.097-0.038 0.108-0.082 0.262-0.13 0.429-0.101 0.351-0.218 0.761-0.333 0.932-0.107 0.159-0.271 0.195-0.448 0.225-0.058-0.007-0.113-0.017-0.169-0.034-0.134-0.043-0.258-0.13-0.319-0.26-0.21-0.449 0.394-1.968 0.654-2.622 0.024-0.060 0.045-0.112 0.062-0.156-0.151-0.441-0.257-0.885-0.309-1.349-0.238-2.113 0.482-4.258 1.798-5.908 2.048-2.566 5.655-3.87 8.823-4.236z"></path>
<path d="M19.554 11.813l-0.015 0.002c-3.168 0.367-6.775 1.67-8.823 4.236-1.316 1.649-2.035 3.795-1.798 5.908 0.052 0.464 0.157 0.907 0.309 1.349-0.017 0.044-0.038 0.096-0.062 0.156-0.26 0.653-0.864 2.172-0.654 2.622 0.061 0.13 0.185 0.217 0.319 0.26 0.055 0.017 0.111 0.027 0.169 0.034 0.178-0.029 0.342-0.066 0.448-0.225 0.115-0.171 0.232-0.581 0.333-0.932 0.048-0.167 0.092-0.321 0.13-0.429 0.13-0.37 0.278-0.733 0.426-1.097 0.001-0.001 0.001-0.003 0.002-0.004 0.017-0.043 0.035-0.085 0.052-0.128 2.613 0.008 5.403-0.81 7.293-2.675 2.114-2.086 2.646-5.45 2.65-8.296 0-0.224-0.015-0.491-0.179-0.662-0.101-0.106-0.253-0.137-0.394-0.134-0.068 0.002-0.136 0.009-0.204 0.016zM19.090 13.037l0.052 0.003c0.002 0.005 0.004 0.010 0.006 0.015 0.003 0.008 0.006 0.014 0.008 0.020 0.010 0.022 0.011 0.026 0.011 0.061-0.017 2.283-0.628 5.223-2.248 6.895-1.501 1.549-3.831 2.308-5.956 2.35 0.99-1.862 2.58-3.627 4.221-4.939 0.254-0.203 0.519-0.386 0.785-0.569 0.171-0.118 0.342-0.236 0.51-0.359 0.163-0.12 0.383-0.282 0.406-0.501 0.021-0.201-0.086-0.357-0.212-0.501-0.176-0.102-0.306-0.145-0.507-0.086-0.286 0.084-0.574 0.296-0.834 0.487-0.069 0.051-0.136 0.1-0.2 0.145-2.104 1.49-3.852 3.426-5.119 5.671-0.043-1.826 0.373-3.356 1.493-4.825 1.681-2.205 4.898-3.5 7.583-3.866z"></path>
<path d="M60.349 19.55c-0.079-2.244-1.962-3.999-4.206-3.92s-4 1.962-3.921 4.207c0.079 2.245 1.963 4 4.207 3.921s3.999-1.963 3.92-4.207zM56.284 16.85c0.655 0.026 1.185 0.184 1.684 0.626 0.595 0.526 0.927 1.287 0.97 2.074s-0.204 1.587-0.741 2.175c-0.49 0.537-1.102 0.777-1.819 0.813-0.654-0.007-1.193-0.109-1.71-0.538-0.603-0.501-0.943-1.243-1.007-2.018-0.066-0.805 0.145-1.638 0.679-2.255 0.53-0.612 1.157-0.823 1.943-0.877z"></path>
<path d="M49.048 19.214c-0.267-2.232-2.295-3.822-4.526-3.551-2.225 0.271-3.811 2.292-3.544 4.518s2.285 3.815 4.511 3.552c2.232-0.263 3.826-2.288 3.559-4.52zM44.652 16.883c0.651-0.053 1.241 0.015 1.79 0.394 0.617 0.424 1.006 1.080 1.134 1.813 0.146 0.832 0.009 1.721-0.492 2.414-0.438 0.607-0.985 0.908-1.714 1.024-0.666 0.034-1.255-0.006-1.816-0.403-0.605-0.426-1.013-1.078-1.131-1.809-0.136-0.806 0.027-1.733 0.508-2.404 0.423-0.589 1.013-0.916 1.72-1.029z"></path>
<path d="M68.873 15.625c-0.020 0.001-0.040 0.002-0.060 0.005-1.024 0.121-1.945 0.616-2.588 1.429-0.734 0.927-0.987 2.103-0.841 3.266 0.119 1.021 0.641 1.953 1.451 2.587 0.959 0.745 2.176 0.935 3.361 0.773 0.686-0.094 1.716-0.422 2.155-0.993 0.124-0.16 0.185-0.356 0.157-0.558-0.020-0.142-0.082-0.278-0.199-0.365-0.134-0.1-0.314-0.113-0.473-0.081-0.222 0.043-0.421 0.18-0.609 0.31-0.040 0.027-0.079 0.055-0.118 0.080-0.828 0.43-1.746 0.632-2.656 0.337-0.648-0.213-1.183-0.678-1.484-1.291-0.157-0.313-0.235-0.645-0.305-0.986h3.906c0.163 0 0.337 0.006 0.516 0.012 0.463 0.015 0.959 0.031 1.368-0.042 0.117-0.021 0.228-0.083 0.312-0.166 0.192-0.187 0.226-0.452 0.22-0.708-0.022-0.979-0.481-1.944-1.193-2.606-0.822-0.765-1.814-1.052-2.919-1.002zM68.994 16.848c0.593-0.070 1.191 0.082 1.68 0.426 0.584 0.415 0.891 1.005 1.014 1.698-0.495 0.006-0.991 0.005-1.486 0.003-0.248-0.001-0.496-0.001-0.743-0.001l-2.748 0.004c0.126-0.423 0.272-0.807 0.542-1.161 0.436-0.57 1.039-0.876 1.742-0.969z"></path>
<path d="M47.116 12.72c1.466-0.035 2.94-0.003 4.408-0.005 0.836-0.001 1.903-0.069 2.714 0.014 0.131 0.014 0.235 0.051 0.334 0.137 0.141 0.123 0.235 0.309 0.24 0.498 0.004 0.17-0.1 0.366-0.223 0.48-0.094 0.087-0.206 0.121-0.329 0.142-0.338 0.055-0.71 0.023-1.053 0.022l-1.82-0.003-0 6.756c0.002 0.569 0.074 1.811-0.011 2.295-0.027 0.152-0.082 0.304-0.187 0.42-0.112 0.125-0.268 0.188-0.434 0.192-0.175 0.004-0.346-0.034-0.472-0.162-0.148-0.149-0.203-0.368-0.221-0.571-0.034-0.375-0.003-0.772 0.001-1.149 0.007-0.557 0.001-1.115 0.001-1.673l0.004-6.111c-0.605 0.003-2.701 0.099-3.13-0.095-0.157-0.071-0.255-0.181-0.312-0.344-0.060-0.174-0.033-0.359 0.055-0.518 0.102-0.186 0.239-0.266 0.437-0.327z"></path>
<path d="M37.525 15.631c0.545-0.031 1.077 0.004 1.606 0.146 0.558 0.149 1.412 0.479 1.701 1.009 0.079 0.146 0.121 0.32 0.065 0.482-0.057 0.165-0.214 0.29-0.371 0.355-0.459 0.188-1.034-0.445-1.466-0.607-0.703-0.265-1.548-0.25-2.231 0.069-0.628 0.293-1.080 0.849-1.313 1.494-0.271 0.749-0.294 1.725 0.050 2.454 0.319 0.676 0.907 1.149 1.604 1.395 0.798 0.282 1.629 0.132 2.375-0.226 0.231-0.125 0.441-0.292 0.704-0.346 0.136-0.028 0.27-0.013 0.386 0.067 0.143 0.099 0.258 0.295 0.277 0.468 0.018 0.162-0.045 0.311-0.146 0.436-0.436 0.541-1.407 0.812-2.068 0.893-1.147 0.141-2.341-0.089-3.259-0.821-0.863-0.674-1.412-1.672-1.519-2.762-0.114-1.086 0.205-2.172 0.886-3.025 0.691-0.849 1.633-1.363 2.719-1.48z"></path>
<path d="M62.017 13.579c0.023-0.001 0.046-0.002 0.068-0.003 0.203-0.006 0.408 0.048 0.551 0.198 0.343 0.358 0.207 1.565 0.203 2.059 0.467 0.003 1.602-0.142 1.952 0.169 0.127 0.113 0.178 0.269 0.178 0.436 0 0.162-0.041 0.317-0.161 0.431-0.327 0.31-1.508 0.188-1.97 0.185 0.005 0.992-0.13 4.051 0.176 4.804 0.494 1.217 1.566 0.147 2.177 0.434 0.131 0.062 0.238 0.192 0.287 0.327 0.069 0.193 0.008 0.365-0.072 0.542-0.014 0.015-0.028 0.030-0.041 0.044-0.369 0.385-1.063 0.477-1.572 0.484-0.591 0.009-1.15-0.092-1.586-0.529-0.316-0.316-0.512-0.75-0.608-1.182-0.149-0.667-0.087-1.405-0.087-2.085l0.002-2.84c-0.358-0-0.717-0.003-1.076-0.009-0.059-0.037-0.117-0.075-0.169-0.122-0.142-0.128-0.206-0.318-0.211-0.505-0.005-0.157 0.044-0.312 0.161-0.421 0.29-0.268 0.927-0.172 1.295-0.166-0.001-0.517-0.114-1.443 0.081-1.897 0.087-0.202 0.228-0.275 0.423-0.356z"></path>
<path d="M33.574 13.386c-0.618-0.061-3.641-0.039-4.69-0.024-0.193 0.003-0.372 0.016-0.529 0.028-0.134 0.010-0.252 0.019-0.349 0.019 0 0-0.417 0.098-0.553 0.286-0.089 0.123-0.119 0.279-0.14 0.426-0.112 0.781-0.178 1.578-0.243 2.372-0.034 0.418-0.069 0.835-0.11 1.249l-0.398 4.015c-0.011 0.107-0.029 0.254-0.050 0.42-0.067 0.538-0.161 1.283-0.1 1.579 0.033 0.164 0.12 0.3 0.266 0.386 0.143 0.084 0.306 0.133 0.469 0.16h0.002c0.337-0.001 0.846 0.005 1.414 0.010 1.178 0.012 4.175 0.027 4.872-0.003 0.139-0.006 0.286-0.018 0.417-0.067 0.176-0.067 0.32-0.194 0.39-0.371 0.070-0.178 0.055-0.378-0.025-0.55-0.080-0.174-0.188-0.266-0.369-0.324h-6.023c0.101-0.887 0.19-1.774 0.27-2.663l0.071-0.722 0.007-0.072c0.047 0.001 0.109 0.002 0.183 0.003 0.613 0.009 3.599 0.031 3.979-0.026 0.14-0.021 0.27-0.056 0.372-0.159 0.132-0.133 0.187-0.318 0.176-0.503-0.009-0.157-0.079-0.328-0.198-0.434-0.080-0.070-0.178-0.116-0.284-0.131-0.356-0.052-3.010-0.038-3.68-0.029-0.18 0.002-0.329 0.004-0.426 0.004l0.305-3.602h3.25c0.166 0 0.338 0.006 0.514 0.011 0.424 0.014 0.864 0.028 1.258-0.033 0.14-0.022 0.261-0.070 0.362-0.172 0.125-0.125 0.193-0.314 0.183-0.49-0.010-0.179-0.106-0.35-0.246-0.46-0.107-0.084-0.215-0.121-0.349-0.134z"></path>
</symbol>
<symbol id="icon-star-fillled" viewBox="0 0 32 32"><path d="M8.688 19.097 6.701 27.7a1.326 1.326 0 0 0 .538 1.4 1.327 1.327 0 0 0 1.501.009l7.26-4.84 7.26 4.84a1.333 1.333 0 0 0 1.525-.034 1.34 1.34 0 0 0 .498-1.441l-2.439-8.533 6.048-5.443a1.332 1.332 0 0 0-.073-2.043 1.339 1.339 0 0 0-.714-.277l-7.601-.605-3.289-7.281A1.327 1.327 0 0 0 16 2.665a1.33 1.33 0 0 0-1.215.787l-3.289 7.281-7.601.604a1.333 1.333 0 0 0-.825 2.284l5.619 5.476z"/></symbol>
<symbol id="icon-star" viewBox="0 0 32 32"><path d="M8.688 19.097 6.701 27.7a1.326 1.326 0 0 0 .538 1.4 1.327 1.327 0 0 0 1.501.009l7.26-4.84 7.26 4.84a1.333 1.333 0 0 0 1.525-.034 1.34 1.34 0 0 0 .498-1.441l-2.439-8.533 6.048-5.443a1.332 1.332 0 0 0-.073-2.043 1.339 1.339 0 0 0-.714-.277l-7.601-.605-3.289-7.281A1.327 1.327 0 0 0 16 2.665a1.33 1.33 0 0 0-1.215.787l-3.289 7.281-7.601.604a1.333 1.333 0 0 0-.825 2.284l5.619 5.476zm3.804-5.768a1.329 1.329 0 0 0 1.11-.782l2.399-5.308 2.399 5.308a1.33 1.33 0 0 0 1.11.782l5.296.42-4.361 3.925a1.336 1.336 0 0 0-.391 1.357l1.671 5.847-4.981-3.321a1.325 1.325 0 0 0-1.478 0l-5.205 3.471 1.4-6.061a1.343 1.343 0 0 0-.368-1.254l-4.051-3.949 5.453-.435z"/></symbol>
<symbol id="icon-menu" viewBox="0 0 32 32"><path d="M5.333 8h21.333v2.667H5.333V8zm0 6.667h21.333v2.667H5.333v-2.667zm0 6.666h21.333V24H5.333v-2.667z"/></symbol>
<symbol id="icon-close" viewBox="0 0 32 32"><path d="m21.589 8.459-5.657 5.656-5.656-5.656-1.885 1.885L14.047 16l-5.656 5.656 1.885 1.885 5.656-5.656 5.657 5.656 1.885-1.885L17.818 16l5.656-5.656-1.885-1.885z"/></symbol>
<symbol id="icon-youtube" viewBox="0 0 32 32"><path d="M28.791 9.604a3.345 3.345 0 0 0-2.35-2.354C24.353 6.677 16 6.667 16 6.667s-8.352-.009-10.441.539a3.416 3.416 0 0 0-2.354 2.371c-.551 2.088-.556 6.419-.556 6.419s-.005 4.352.541 6.419a3.341 3.341 0 0 0 2.351 2.353c2.109.573 10.44.583 10.44.583s8.353.009 10.441-.537a3.356 3.356 0 0 0 2.356-2.35c.552-2.087.556-6.416.556-6.416s.027-4.353-.543-6.441zM13.328 20.007l.007-8 6.943 4.007-6.949 3.993z"/></symbol>
<symbol id="icon-linkedIn" viewBox="0 0 32 32"><path d="M25.75 4H6.25A2.257 2.257 0 0 0 4 6.25v19.5A2.257 2.257 0 0 0 6.25 28h19.5A2.257 2.257 0 0 0 28 25.75V6.25A2.257 2.257 0 0 0 25.75 4zM13 23.5h-3V13h3v10.5zm-1.5-12a1.5 1.5 0 1 1-.001-2.999A1.5 1.5 0 0 1 11.5 11.5zm12 12h-3v-6a1.5 1.5 0 1 0-3 0v6h-3V13h3v1.861c.619-.848 1.565-1.861 2.625-1.861 1.866 0 3.375 1.679 3.375 3.75v6.75z"/></symbol>
<symbol id="icon-instagram" viewBox="0 0 32 32"><path d="M15.998 6.161c3.206 0 3.585.014 4.846.071 1.172.052 1.804.248 2.226.412.558.216.961.478 1.378.895.422.422.679.82.9 1.378.164.422.361 1.059.412 2.226.056 1.266.071 1.645.071 4.847s-.014 3.585-.071 4.847c-.052 1.172-.248 1.804-.412 2.227a3.702 3.702 0 0 1-.895 1.377c-.422.422-.82.679-1.378.9-.422.164-1.06.361-2.226.412-1.266.056-1.645.071-4.847.071s-3.585-.014-4.847-.071c-1.172-.052-1.804-.248-2.226-.412a3.714 3.714 0 0 1-1.378-.895 3.767 3.767 0 0 1-.9-1.378c-.164-.422-.361-1.06-.412-2.226-.056-1.266-.071-1.645-.071-4.847s.014-3.585.071-4.847c.052-1.172.248-1.804.412-2.226.216-.558.478-.961.895-1.378.422-.422.82-.679 1.378-.9.422-.164 1.059-.361 2.226-.412 1.261-.056 1.641-.071 4.847-.071h.001zm0-2.16c-3.258 0-3.665.014-4.945.071-1.275.056-2.151.262-2.91.558a5.847 5.847 0 0 0-2.127 1.387A5.883 5.883 0 0 0 4.629 8.14c-.295.764-.502 1.636-.558 2.91C4.015 12.335 4 12.742 4 15.999s.014 3.665.071 4.945c.056 1.275.262 2.151.558 2.91a5.86 5.86 0 0 0 1.387 2.127 5.876 5.876 0 0 0 2.123 1.383c.764.295 1.636.502 2.91.558 1.279.056 1.687.071 4.945.071s3.666-.014 4.945-.071c1.275-.056 2.151-.262 2.91-.558.787-.305 1.458-.717 2.123-1.383s1.078-1.336 1.383-2.123c.295-.764.502-1.635.558-2.91.056-1.279.071-1.687.071-4.945s-.014-3.665-.071-4.945c-.056-1.275-.262-2.151-.558-2.91a5.622 5.622 0 0 0-1.373-2.133 5.876 5.876 0 0 0-2.123-1.383c-.764-.295-1.635-.502-2.91-.558-1.284-.061-1.692-.075-4.949-.075L15.999 4z"/>
<path d="M15.998 9.836a6.164 6.164 0 1 0 6.163 6.163 6.164 6.164 0 0 0-6.163-6.163zm0 10.161a3.998 3.998 0 1 1 0-7.996 3.998 3.998 0 0 1 0 7.996zM23.843 9.592a1.439 1.439 0 1 1-2.877 0 1.439 1.439 0 0 1 2.877 0z"/></symbol>
</defs></svg>
